<svg width="422" height="325" viewBox="0 0 422 325" fill="none" xmlns="http://www.w3.org/2000/svg">
<path d="M52.75 81.25V243.75H234.21C230.48 235.009 228.58 225.867 228.583 216.667H123.083C123.083 209.484 119.378 202.595 112.783 197.516C106.188 192.437 97.2434 189.583 87.9167 189.583V135.417C107.434 135.417 123.083 123.365 123.083 108.333H298.917C298.917 115.516 302.622 122.405 309.217 127.484C315.812 132.563 324.757 135.417 334.083 135.417V136.229C345.864 136.229 357.645 137.854 369.25 140.833V81.25H52.75ZM211 121.875C181.108 122.281 158.25 139.479 158.25 162.5C158.25 185.521 181.108 202.312 211 203.125C217.682 203.125 224.539 202.042 231.045 200.01C235.793 185.115 243.705 171.031 263.223 157.219C261.113 139.208 238.958 121.469 211 121.875ZM334.083 148.958L373.646 179.427L334.083 209.896V189.583C301.554 189.583 280.278 216.125 294.697 238.604L275.531 253.365C244.584 217.344 277.993 169.271 334.083 169.271V148.958ZM334.083 297.917L294.521 267.448L334.083 236.979V257.292C366.613 257.292 387.888 230.75 373.47 208.271L392.636 193.51C423.583 229.531 390.174 277.604 334.083 277.604V297.917Z" fill="black"/>
</svg>
